PathFileType	4	(X/Y/Z)	 s05c0203.trc
DataRate	CameraRate	NumFrames	NumMarkers	Units	OrigDataRate	OrigDataStartFrame	OrigNumFrames
200	200	7	47	mm	200	1	2000
Frame#	Time	racr			lacr			c7			jug			rlel			rdr			llel			ldr			s2			lic			ric			lasi			rasi			rpsi			lpsi			rgt			lgt			rth1			rth2			rth3			rth4			rlfc			rsh1			rsh2			rsh3			rsh4			rlmal			rcal			rtoe			rmt5			lth1			lth2			lth4			lth3			llfc			lmfc			lsh1			lsh2			lsh3			lsh4			llmal			lcal			ltoe			lmt5			SBIKE			LBIKE			RBIKE			
		X1	Y1	Z1	X2	Y2	Z2	X3	Y3	Z3	X4	Y4	Z4	X5	Y5	Z5	X6	Y6	Z6	X7	Y7	Z7	X8	Y8	Z8	X9	Y9	Z9	X10	Y10	Z10	X11	Y11	Z11	X12	Y12	Z12	X13	Y13	Z13	X14	Y14	Z14	X15	Y15	Z15	X16	Y16	Z16	X17	Y17	Z17	X18	Y18	Z18	X19	Y19	Z19	X20	Y20	Z20	X21	Y21	Z21	X22	Y22	Z22	X23	Y23	Z23	X24	Y24	Z24	X25	Y25	Z25	X26	Y26	Z26	X27	Y27	Z27	X28	Y28	Z28	X29	Y29	Z29	X30	Y30	Z30	X31	Y31	Z31	X32	Y32	Z32	X33	Y33	Z33	X34	Y34	Z34	X35	Y35	Z35	X36	Y36	Z36	X37	Y37	Z37	X38	Y38	Z38	X39	Y39	Z39	X40	Y40	Z40	X41	Y41	Z41	X42	Y42	Z42	X43	Y43	Z43	X44	Y44	Z44	X45	Y45	Z45	X46	Y46	Z46	X47	Y47	Z47	
1	0.0050	388.942696	1385.580368	-126.514774	398.996692	1400.150966	-419.689270	376.310919	1470.246775	-277.291639	360.734860	1313.990945	-276.686696	493.506436	1150.716882	-29.091277	684.067211	964.895755	-61.651469	481.230458	1150.095005	-521.238552	692.043287	973.821452	-475.802723	-129.233267	1158.121892	-263.846041	17.965107	1173.627578	-408.976848	24.740513	1198.008916	-129.660322	68.279696	1124.507087	-375.034351	64.959753	1137.376214	-156.310835	-97.359258	1207.683814	-224.915727	-94.545602	1207.340101	-312.328045	-17.421312	1068.055302	-90.592360	-54.458090	1065.835671	-433.848295	87.602817	1016.996749	-71.219600	175.816660	1005.953551	-68.489462	245.766568	951.927728	-69.573872	189.057575	1038.444549	-80.377329	379.158460	880.892243	-93.314703	316.244200	787.638877	-74.664335	308.444218	700.858381	-87.693043	259.255072	629.377467	-95.582964	336.335681	693.384692	-112.704510	217.839273	504.425418	-110.299409	146.894313	470.291650	-157.643941	441.486528	454.879286	-145.421431	339.789125	429.131236	-82.525350	25.863852	947.609826	-459.123612	95.125422	897.976441	-463.890969	125.140019	918.012741	-453.740592	129.905400	813.652380	-467.996462	205.941523	685.574451	-442.697248	201.611268	675.644728	-333.538626	120.781608	589.982233	-461.848359	92.431102	507.772656	-447.970867	24.824611	450.751026	-443.909200	119.219050	492.544382	-425.315118	-36.847274	343.425536	-431.533858	-106.871080	319.457766	-386.887709	172.457922	228.886861	-396.197794	61.247489	230.632171	-458.197938	-181.553795	902.733497	-276.691358	-43.449150	85.088897	-474.588739	-51.501135	79.806712	-77.022956	
2	0.0100	388.938688	1385.511721	-126.477918	399.055994	1400.129669	-419.678204	376.290975	1470.033035	-277.789961	360.776474	1313.934611	-276.652827	493.471941	1150.660099	-29.081305	684.038520	964.868730	-61.674583	481.198437	1150.066073	-521.303379	692.021900	973.821974	-475.858294	-129.208525	1158.128319	-263.878844	17.958789	1173.608555	-409.010004	24.726193	1198.025665	-129.674910	68.309766	1124.486819	-375.043159	64.945142	1137.378384	-156.287384	-97.331424	1207.687932	-224.965253	-94.538297	1207.321073	-312.347638	-17.438532	1068.063182	-90.609844	-54.449401	1065.824159	-433.866640	87.622723	1017.049692	-71.252108	175.826048	1006.077112	-68.481886	245.807505	952.067806	-69.566529	189.051196	1038.594843	-80.369864	379.074801	880.794386	-93.663056	316.268147	787.932021	-74.669375	308.410432	701.059105	-87.681193	259.176707	629.600569	-95.569066	336.319109	693.592221	-112.680378	217.730398	504.671704	-110.311315	146.775005	470.587826	-157.627931	441.320830	455.084203	-145.409623	339.628612	429.372341	-82.535947	25.814706	947.583290	-459.124867	95.066834	897.889740	-463.894133	125.093654	917.920066	-453.726288	129.806874	813.564202	-467.983269	205.773134	685.465523	-442.687075	201.444862	675.533800	-333.502534	120.671950	589.823464	-461.837240	92.396334	507.574036	-447.947231	24.821665	450.503120	-443.904402	119.150314	492.384935	-425.327359	-36.781476	343.120278	-431.533323	-106.771185	319.160313	-386.891750	172.586127	228.724464	-396.210451	61.368062	230.409593	-458.217301	-181.491933	902.847654	-276.971880	-43.478089	85.098969	-474.600652	-51.487058	79.777612	-77.029162	
3	0.0150	388.936461	1385.455683	-126.436276	399.097930	1400.115866	-419.640394	376.320921	1469.984492	-277.782727	360.778671	1313.895907	-276.636090	493.456211	1150.615128	-29.100794	684.021430	964.863276	-61.684892	481.171275	1150.027793	-521.363355	692.018329	973.811512	-475.901745	-129.198945	1158.132219	-263.891579	17.986448	1173.610997	-409.020041	24.705030	1198.039003	-129.689560	68.313070	1124.493986	-375.033101	64.930925	1137.391618	-156.292495	-97.332755	1207.688183	-224.997918	-94.518831	1207.318779	-312.372836	-17.417035	1068.094765	-90.625110	-54.436400	1065.816443	-433.867430	87.593732	1017.120047	-71.246130	175.839079	1006.213883	-68.481735	245.848417	952.226721	-69.556866	189.054394	1038.699552	-80.387797	379.133254	880.945958	-93.641068	316.263967	788.189551	-74.660437	308.381349	701.247476	-87.664615	259.106191	629.850889	-95.560089	336.270661	693.808630	-112.652741	217.595339	504.897056	-110.308759	146.661362	470.865571	-157.651300	441.177330	455.289259	-145.390830	339.476987	429.588927	-82.541330	25.793234	947.528237	-459.117497	95.007176	897.818839	-463.892649	125.033814	917.825046	-453.728931	129.699283	813.483712	-467.977789	205.634089	685.345909	-442.651478	201.254850	675.402977	-333.486779	120.559901	589.657118	-461.814845	92.330606	507.397975	-447.915496	24.799230	450.280828	-443.900573	119.116228	492.232127	-425.314329	-36.710748	342.820780	-431.526462	-106.691746	318.836525	-386.913216	172.716021	228.563119	-396.202366	61.484927	230.185673	-458.210305	-181.451549	902.886148	-277.064494	-43.464642	85.106955	-474.616196	-51.493254	79.795375	-77.024150	
4	0.0200	388.924497	1385.393815	-126.383858	399.130100	1400.076111	-419.619037	376.319412	1469.993836	-277.779200	360.806986	1313.861741	-276.623729	493.410651	1150.581859	-29.121321	684.010466	964.816555	-61.654119	481.132984	1149.976333	-521.419893	692.015767	973.808241	-475.953740	-129.200637	1158.134266	-263.931297	18.000802	1173.637931	-409.059679	24.824363	1198.427381	-130.490866	68.330637	1124.491793	-375.039215	64.918868	1137.400328	-156.304104	-97.312504	1208.268177	-223.079516	-94.499020	1207.325139	-312.408967	-17.439353	1067.989462	-90.592238	-54.431341	1065.807401	-433.883170	87.591007	1017.215038	-71.271633	175.837763	1006.319520	-68.468280	245.998706	952.227405	-69.562369	189.031408	1038.828554	-80.377715	379.367771	881.381815	-93.226288	316.246636	788.354422	-74.637861	307.224123	700.539633	-88.355868	259.051894	630.032107	-95.536654	336.298268	693.891972	-112.643358	217.160157	505.684410	-109.991765	146.902357	470.918733	-157.930076	441.043557	455.511588	-145.397064	339.311389	429.844831	-82.537919	25.753801	947.496040	-459.122037	95.063065	897.031064	-463.276228	124.738738	917.548592	-453.388308	129.945413	813.582781	-467.586569	205.644861	685.073028	-442.113869	201.076679	675.296997	-333.482725	120.446007	589.522588	-461.803328	92.289048	507.171742	-447.918879	24.769096	450.062728	-443.891982	119.512585	493.056962	-425.115306	-36.685010	342.606778	-431.600496	-106.607582	318.496513	-386.909216	172.855727	228.362018	-396.197288	61.623888	229.937492	-458.186625	-181.390993	902.965806	-277.250681	-43.471758	85.119276	-474.614822	-51.498226	79.796148	-77.030656	
5	0.0250	388.842147	1385.691236	-126.105206	399.119587	1400.484896	-419.526822	376.339617	1470.021287	-277.573669	360.856072	1314.247996	-276.492114	493.328172	1150.808184	-29.025442	683.936125	964.980909	-61.540112	481.108957	1150.134069	-521.547423	691.984590	973.776671	-475.999414	-129.118871	1158.186061	-263.983016	18.184493	1173.634565	-409.106520	24.801009	1198.416961	-130.496494	68.182763	1124.808272	-375.020423	64.886285	1137.377342	-156.312319	-97.283773	1208.339200	-223.057857	-94.459708	1207.358912	-312.484265	-17.618305	1068.341730	-90.454860	-54.484521	1065.870066	-433.904587	87.549597	1017.484973	-71.222881	175.746953	1006.724858	-68.333261	245.808153	952.675517	-69.422733	188.951482	1039.185385	-80.216995	379.439061	881.520840	-93.579953	316.080310	788.786897	-74.557278	307.120102	701.014415	-88.223685	258.758654	630.550273	-95.392283	336.202236	694.344630	-112.561507	217.015854	505.927606	-109.973499	146.842214	471.129457	-157.955472	440.798869	455.885348	-145.351932	338.973722	430.389728	-82.335293	25.772049	947.511923	-459.086278	95.043875	896.972119	-463.248923	125.036150	917.748639	-453.872749	129.870417	813.495825	-467.581614	205.404336	685.147564	-442.090592	200.763833	675.490856	-333.321508	120.276728	589.491568	-461.698657	92.120143	507.198434	-447.856070	24.788858	449.828762	-443.859508	119.464695	492.889131	-425.069883	-36.663583	342.356846	-431.714534	-106.517651	318.183559	-386.936090	173.019625	228.177119	-396.219156	61.742706	229.676682	-458.208145	-181.337828	902.897505	-276.869128	-43.455643	85.007259	-474.650658	-51.777336	80.152385	-77.094783	
6	0.0300	388.807002	1385.673940	-126.056949	399.157184	1400.496952	-419.525976	376.351261	1469.991539	-277.486244	360.877247	1314.226740	-276.459503	493.325637	1150.805776	-29.023483	683.939380	964.995954	-61.475713	481.114521	1150.121024	-521.615260	691.997275	973.778086	-476.059957	-129.107264	1158.210741	-264.003162	18.272959	1173.628860	-409.135463	24.794526	1198.417611	-130.519188	68.155276	1124.820009	-375.009269	64.877952	1137.374329	-156.321888	-97.270689	1208.354172	-223.117853	-94.445105	1207.359371	-312.528225	-17.628392	1068.451351	-90.508699	-54.483763	1065.887274	-433.926655	87.444814	1017.572915	-71.210470	175.736072	1006.882594	-68.292873	245.812165	952.890561	-69.405838	188.953122	1039.339380	-80.192217	379.491101	881.664898	-93.662014	316.067727	789.012444	-74.543458	307.072091	701.242659	-88.156851	258.682307	630.815059	-95.379584	337.177107	694.741372	-112.152603	216.898158	506.222947	-109.965857	146.752608	471.365496	-158.003500	440.689392	456.067767	-145.347236	338.827766	430.627606	-82.279382	25.758405	947.491598	-459.072035	94.998580	896.914902	-463.254259	125.012849	917.662929	-453.861113	129.758681	813.372921	-467.557029	205.262293	685.030426	-442.061663	200.577048	675.427409	-333.273151	120.187058	589.296663	-461.664662	92.081585	507.026872	-447.840115	24.793363	449.619508	-443.817187	119.416404	492.694949	-425.017986	-36.594368	342.112272	-431.760918	-106.430520	317.858094	-386.960780	173.140084	228.017641	-396.226985	61.875236	229.438721	-458.215075	-181.270590	902.888574	-276.737651	-43.440083	84.983057	-474.681712	-51.811852	80.155900	-77.118392	
7	0.0350	388.801765	1385.618417	-126.013274	399.200898	1400.464709	-419.493209	376.364822	1469.938748	-277.482159	360.903022	1314.197364	-276.420226	493.302559	1150.773122	-29.059903	683.958780	965.022714	-61.392728	481.121765	1150.104581	-521.665236	691.994336	973.755374	-476.109264	-129.103152	1158.203599	-264.033844	18.272995	1173.662702	-409.233557	24.776625	1198.443535	-130.532314	68.183625	1124.790338	-374.984983	64.848843	1137.383474	-156.343218	-97.297086	1208.348024	-223.116154	-94.430916	1207.364650	-312.560918	-17.652932	1068.490625	-90.507193	-54.476772	1065.876758	-433.938056	87.437815	1017.680106	-71.205146	175.752768	1007.001420	-68.272584	245.832559	953.070938	-69.390660	188.950298	1039.480644	-80.178221	379.567291	881.832727	-93.689541	316.099119	789.233770	-74.506962	307.067088	701.487304	-88.151685	258.641999	631.046718	-95.374672	337.037998	694.919127	-112.157663	216.775473	506.552225	-109.957983	146.631793	471.673530	-157.985908	440.553156	456.258786	-145.346013	338.716800	430.814216	-82.257975	25.710150	947.468556	-459.073670	94.935178	896.844786	-463.258036	124.988207	917.614953	-453.893645	129.663579	813.286766	-467.548222	205.118910	684.936950	-442.049510	200.432931	675.340421	-333.243642	120.080585	589.124890	-461.630931	92.036928	506.856134	-447.842402	24.784645	449.378997	-443.811731	119.374809	492.550899	-425.014253	-36.536015	341.867470	-431.774473	-106.352020	317.497159	-386.940158	173.273722	227.860209	-396.236114	62.000236	229.229614	-458.227711	-181.227332	902.872882	-276.659063	-43.455868	84.965325	-474.664372	-51.805056	80.160921	-77.148103	
